<svg xmlns="http://www.w3.org/2000/svg" viewBox="0 0 720 470" font-family="-apple-system,Segoe UI,Arial,sans-serif" font-size="12.5">
  <defs>
    <marker id="arrowg" viewBox="0 0 10 10" refX="9" refY="5" markerWidth="7" markerHeight="7" orient="auto-start-reverse"><path d="M0,0 L10,5 L0,10 z" fill="#94a3b8"/></marker>
  </defs>
  <rect x="8" y="8" width="704" height="86" rx="10" fill="#eff6ff" stroke="#bfdbfe"/>
  <text x="20" y="27" fill="#1e3a8a" font-weight="700" font-size="12">EXTENSION RUNTIME (Manifest V3)</text>
  <rect x="24" y="36" width="180" height="46" rx="7" fill="#fff" stroke="#2563eb"/><text x="114" y="63" text-anchor="middle">manifest.json</text>
  <rect x="222" y="36" width="240" height="46" rx="7" fill="#fff" stroke="#2563eb"/><text x="342" y="58" text-anchor="middle">service-worker.js</text><text x="342" y="73" text-anchor="middle" fill="#64748b" font-size="10.5">DNR redirect rule</text>
  <rect x="480" y="36" width="216" height="46" rx="7" fill="#fff" stroke="#2563eb"/><text x="588" y="58" text-anchor="middle">content.js</text><text x="588" y="73" text-anchor="middle" fill="#64748b" font-size="10.5">stub (future phase)</text>
  <rect x="8" y="104" width="704" height="120" rx="10" fill="#f8fafc" stroke="#e2e8f0"/>
  <text x="20" y="123" fill="#0f172a" font-weight="700" font-size="12">CUSTOM VIEWER (the application)</text>
  <rect x="24" y="132" width="150" height="40" rx="7" fill="#fff" stroke="#475569"/><text x="99" y="156" text-anchor="middle">viewer.html</text>
  <rect x="190" y="132" width="300" height="80" rx="7" fill="#fff" stroke="#475569" stroke-width="1.6"/><text x="340" y="152" text-anchor="middle" font-weight="700">viewer.js — orchestrator</text>
  <text x="340" y="170" text-anchor="middle" fill="#64748b" font-size="10.5">load &#183; render &#183; detect &#183; OCR &#183; cache &#183; find</text>
  <rect x="206" y="178" width="86" height="26" rx="6" fill="#f0fdf4" stroke="#16a34a"/><text x="249" y="195" text-anchor="middle" font-size="10.5">text-layer.js</text>
  <rect x="298" y="178" width="86" height="26" rx="6" fill="#fffbeb" stroke="#d97706"/><text x="341" y="195" text-anchor="middle" font-size="10.5">cache.js</text>
  <rect x="390" y="178" width="86" height="26" rx="6" fill="#f0fdfa" stroke="#0d9488"/><text x="433" y="192" text-anchor="middle" font-size="9.5">ocr-postprocess</text>
  <rect x="506" y="132" width="190" height="40" rx="7" fill="#fff" stroke="#475569"/><text x="601" y="151" text-anchor="middle" font-size="11">find bar (Ctrl+F UI)</text><text x="601" y="165" text-anchor="middle" fill="#64748b" font-size="10">highlights &#183; navigation</text>
  <rect x="8" y="234" width="704" height="86" rx="10" fill="#faf5ff" stroke="#e9d5ff"/>
  <text x="20" y="253" fill="#5b21b6" font-weight="700" font-size="12">VENDORED LIBRARIES (bundled, offline)</text>
  <rect x="24" y="262" width="320" height="46" rx="7" fill="#fff" stroke="#7c3aed"/><text x="184" y="284" text-anchor="middle">PDF.js</text><text x="184" y="299" text-anchor="middle" fill="#64748b" font-size="10.5">pdf.min.mjs + pdf.worker.min.mjs</text>
  <rect x="360" y="262" width="336" height="46" rx="7" fill="#fff" stroke="#0d9488"/><text x="528" y="284" text-anchor="middle">Tesseract.js</text><text x="528" y="299" text-anchor="middle" fill="#64748b" font-size="10.5">worker.min.js + core WASM + eng/dan traineddata</text>
  <rect x="8" y="330" width="704" height="78" rx="10" fill="#f1f5f9" stroke="#e2e8f0"/>
  <text x="20" y="349" fill="#334155" font-weight="700" font-size="12">BROWSER PLATFORM APIs</text>
  <rect x="24" y="358" width="124" height="40" rx="7" fill="#fff" stroke="#94a3b8"/><text x="86" y="382" text-anchor="middle" font-size="11">Canvas 2D</text>
  <rect x="160" y="358" width="150" height="40" rx="7" fill="#fff" stroke="#94a3b8"/><text x="235" y="382" text-anchor="middle" font-size="11">IntersectionObserver</text>
  <rect x="322" y="358" width="150" height="40" rx="7" fill="#fff" stroke="#94a3b8"/><text x="397" y="382" text-anchor="middle" font-size="11">requestIdleCallback</text>
  <rect x="484" y="358" width="100" height="40" rx="7" fill="#fff" stroke="#94a3b8"/><text x="534" y="382" text-anchor="middle" font-size="11">IndexedDB</text>
  <rect x="596" y="358" width="100" height="40" rx="7" fill="#fff" stroke="#94a3b8"/><text x="646" y="382" text-anchor="middle" font-size="11">Web Workers</text>
  <line x1="340" y1="212" x2="240" y2="262" stroke="#94a3b8" stroke-width="1.3" marker-end="url(#arrowg)"/>
  <line x1="360" y1="212" x2="500" y2="262" stroke="#94a3b8" stroke-width="1.3" marker-end="url(#arrowg)"/>
  <line x1="341" y1="204" x2="520" y2="358" stroke="#94a3b8" stroke-width="1.3" marker-end="url(#arrowg)"/>
  <line x1="528" y1="308" x2="630" y2="358" stroke="#94a3b8" stroke-width="1.3" marker-end="url(#arrowg)"/>
  <text x="360" y="432" text-anchor="middle" fill="#64748b" font-size="10.5">arrows show principal dependencies (viewer.js coordinates the libraries; modules use platform APIs)</text>
</svg>
